<svg width="219" height="216" viewBox="0 0 219 216" fill="none" xmlns="http://www.w3.org/2000/svg">
<g filter="url(#filter0_f_6_2)">
<path d="M106.632 15.3382C107.5 12.5125 111.5 12.5125 112.368 15.3382L125.74 58.8818C126.325 60.7853 128.567 61.6016 130.239 60.5192L168.472 35.7585C170.953 34.1517 174.017 36.7228 172.866 39.4453L155.12 81.3972C154.345 83.2311 155.538 85.298 157.514 85.5431L202.718 91.1511C205.652 91.515 206.346 95.4543 203.714 96.7996L163.154 117.53C161.381 118.436 160.967 120.787 162.323 122.245L193.346 155.597C195.36 157.762 193.36 161.226 190.479 160.564L146.083 150.374C144.142 149.928 142.314 151.462 142.415 153.451L144.742 198.942C144.893 201.894 141.134 203.262 139.352 200.904L111.894 164.56C110.693 162.971 108.307 162.971 107.106 164.56L79.6476 200.904C77.8657 203.262 74.1069 201.894 74.2579 198.942L76.5847 153.451C76.6865 151.462 74.8582 149.928 72.9175 150.374L28.5214 160.564C25.6404 161.226 23.6404 157.762 25.6536 155.597L56.6773 122.245C58.0334 120.787 57.619 118.436 55.846 117.53L15.286 96.7996C12.6539 95.4543 13.3485 91.515 16.282 91.1511L61.4861 85.5431C63.4622 85.298 64.6555 83.2311 63.8798 81.3972L46.1343 39.4453C44.9828 36.7228 48.047 34.1517 50.5281 35.7585L88.7612 60.5192C90.4325 61.6016 92.6752 60.7853 93.2598 58.8818L106.632 15.3382Z" fill="#FBB3F3"/>
</g>
<g filter="url(#filter1_f_6_2)">
<path d="M107.132 32.3382C108 29.5125 112 29.5125 112.868 32.3382L123.325 66.3904C123.91 68.2938 126.153 69.1101 127.824 68.0277L157.723 48.6642C160.204 47.0574 163.268 49.6286 162.117 52.351L148.24 85.1585C147.464 86.9923 148.657 89.0592 150.633 89.3044L185.984 93.6899C188.917 94.0539 189.612 97.9931 186.98 99.3384L155.261 115.55C153.488 116.456 153.074 118.807 154.43 120.265L178.691 146.347C180.704 148.512 178.704 151.976 175.823 151.314L141.104 143.345C139.164 142.899 137.335 144.434 137.437 146.422L139.257 181.997C139.408 184.949 135.649 186.318 133.867 183.959L112.394 155.537C111.193 153.948 108.807 153.948 107.606 155.537L86.133 183.959C84.3511 186.318 80.5923 184.949 80.7433 181.997L82.5629 146.422C82.6646 144.434 80.8363 142.899 78.8956 143.345L44.1768 151.314C41.2958 151.976 39.2958 148.512 41.309 146.347L65.5703 120.265C66.9264 118.807 66.512 116.456 64.739 115.55L33.0201 99.3384C30.388 97.9931 31.0826 94.0539 34.0161 93.6899L69.3668 89.3044C71.3429 89.0592 72.5362 86.9923 71.7605 85.1585L57.8831 52.351C56.7315 49.6286 59.7958 47.0574 62.2769 48.6643L92.1761 68.0277C93.8474 69.1101 96.0901 68.2938 96.6747 66.3904L107.132 32.3382Z" fill="#ED65DD"/>
</g>
<defs>
<filter id="filter0_f_6_2" x="0.449201" y="0.0189943" width="218.102" height="215.283" filterUnits="userSpaceOnUse" color-interpolation-filters="sRGB">
<feFlood flood-opacity="0" result="BackgroundImageFix"/>
<feBlend mode="normal" in="SourceGraphic" in2="BackgroundImageFix" result="shape"/>
<feGaussianBlur stdDeviation="6.6" result="effect1_foregroundBlur_6_2"/>
</filter>`
<filter id="filter1_f_6_2" x="18.1833" y="17.019" width="183.633" height="181.339" filterUnits="userSpaceOnUse" color-interpolation-filters="sRGB">
<feFlood flood-opacity="0" result="BackgroundImageFix"/>
<feBlend mode="normal" in="SourceGraphic" in2="BackgroundImageFix" result="shape"/>
<feGaussianBlur stdDeviation="6.6" result="effect1_foregroundBlur_6_2"/>
</filter>
</defs>
</svg>
